<svg xmlns="http://www.w3.org/2000/svg" viewBox="0 0 200 200" width="200" height="200">
  <!-- Background -->
  <rect width="200" height="200" fill="white" rx="8"/>
  <!-- QR border squares -->
  <rect x="10" y="10" width="60" height="60" fill="none" stroke="#0c4a6e" stroke-width="6" rx="4"/>
  <rect x="20" y="20" width="40" height="40" fill="#0c4a6e" rx="2"/>
  <rect x="130" y="10" width="60" height="60" fill="none" stroke="#0c4a6e" stroke-width="6" rx="4"/>
  <rect x="140" y="20" width="40" height="40" fill="#0c4a6e" rx="2"/>
  <rect x="10" y="130" width="60" height="60" fill="none" stroke="#0c4a6e" stroke-width="6" rx="4"/>
  <rect x="20" y="140" width="40" height="40" fill="#0c4a6e" rx="2"/>
  <!-- QR dots pattern (representative) -->
  <rect x="85" y="10" width="8" height="8" fill="#0c4a6e"/>
  <rect x="98" y="10" width="8" height="8" fill="#0c4a6e"/>
  <rect x="85" y="22" width="8" height="8" fill="#0c4a6e"/>
  <rect x="111" y="22" width="8" height="8" fill="#0c4a6e"/>
  <rect x="85" y="34" width="8" height="8" fill="#0c4a6e"/>
  <rect x="98" y="34" width="8" height="8" fill="#0c4a6e"/>
  <rect x="111" y="34" width="8" height="8" fill="#0c4a6e"/>
  <rect x="85" y="46" width="8" height="8" fill="#0c4a6e"/>
  <rect x="111" y="46" width="8" height="8" fill="#0c4a6e"/>
  <rect x="85" y="58" width="8" height="8" fill="#0c4a6e"/>
  <rect x="98" y="58" width="8" height="8" fill="#0c4a6e"/>
  <!-- Middle dots -->
  <rect x="85" y="85" width="8" height="8" fill="#0c4a6e"/>
  <rect x="98" y="85" width="8" height="8" fill="#0c4a6e"/>
  <rect x="111" y="85" width="8" height="8" fill="#0c4a6e"/>
  <rect x="130" y="85" width="8" height="8" fill="#0c4a6e"/>
  <rect x="143" y="85" width="8" height="8" fill="#0c4a6e"/>
  <rect x="156" y="85" width="8" height="8" fill="#0c4a6e"/>
  <rect x="130" y="97" width="8" height="8" fill="#0c4a6e"/>
  <rect x="156" y="97" width="8" height="8" fill="#0c4a6e"/>
  <rect x="130" y="109" width="8" height="8" fill="#0c4a6e"/>
  <rect x="143" y="109" width="8" height="8" fill="#0c4a6e"/>
  <rect x="156" y="109" width="8" height="8" fill="#0c4a6e"/>
  <!-- Bottom right dots -->
  <rect x="85" y="130" width="8" height="8" fill="#0c4a6e"/>
  <rect x="98" y="130" width="8" height="8" fill="#0c4a6e"/>
  <rect x="111" y="130" width="8" height="8" fill="#0c4a6e"/>
  <rect x="85" y="143" width="8" height="8" fill="#0c4a6e"/>
  <rect x="98" y="156" width="8" height="8" fill="#0c4a6e"/>
  <rect x="85" y="169" width="8" height="8" fill="#0c4a6e"/>
  <rect x="98" y="169" width="8" height="8" fill="#0c4a6e"/>
  <rect x="111" y="169" width="8" height="8" fill="#0c4a6e"/>
  <!-- QRIS label -->
  <text x="100" y="193" text-anchor="middle" font-family="Arial" font-size="9" font-weight="bold" fill="#0c4a6e">GANTI DENGAN QRIS NYATA</text>
</svg>
